<svg id="visual" viewBox="0 0 900 100" width="900" height="100" xmlns="http://www.w3.org/2000/svg" xmlns:xlink="http://www.w3.org/1999/xlink" version="1.1"><path d="M0 58L21.5 59.8C43 61.7 86 65.3 128.8 67.3C171.7 69.3 214.3 69.7 257.2 71.8C300 74 343 78 385.8 76C428.7 74 471.3 66 514.2 65.2C557 64.3 600 70.7 642.8 71.5C685.7 72.3 728.3 67.7 771.2 63.7C814 59.7 857 56.3 878.5 54.7L900 53L900 0L878.5 0C857 0 814 0 771.2 0C728.3 0 685.7 0 642.8 0C600 0 557 0 514.2 0C471.3 0 428.7 0 385.8 0C343 0 300 0 257.2 0C214.3 0 171.7 0 128.8 0C86 0 43 0 21.5 0L0 0Z" fill="#01a3a4"></path><path d="M0 56L21.5 54.8C43 53.7 86 51.3 128.8 52.7C171.7 54 214.3 59 257.2 60C300 61 343 58 385.8 55.8C428.7 53.7 471.3 52.3 514.2 52.2C557 52 600 53 642.8 53.8C685.7 54.7 728.3 55.3 771.2 54C814 52.7 857 49.3 878.5 47.7L900 46L900 0L878.5 0C857 0 814 0 771.2 0C728.3 0 685.7 0 642.8 0C600 0 557 0 514.2 0C471.3 0 428.7 0 385.8 0C343 0 300 0 257.2 0C214.3 0 171.7 0 128.8 0C86 0 43 0 21.5 0L0 0Z" fill="#65baba"></path><path d="M0 28L21.5 31.5C43 35 86 42 128.8 44.7C171.7 47.3 214.3 45.7 257.2 44.2C300 42.7 343 41.3 385.8 42.7C428.7 44 471.3 48 514.2 48.3C557 48.7 600 45.3 642.8 44C685.7 42.7 728.3 43.3 771.2 44.5C814 45.7 857 47.3 878.5 48.2L900 49L900 0L878.5 0C857 0 814 0 771.2 0C728.3 0 685.7 0 642.8 0C600 0 557 0 514.2 0C471.3 0 428.7 0 385.8 0C343 0 300 0 257.2 0C214.3 0 171.7 0 128.8 0C86 0 43 0 21.5 0L0 0Z" fill="#9cd1d1"></path><path d="M0 28L21.5 29.5C43 31 86 34 128.8 34.3C171.7 34.7 214.3 32.3 257.2 29.8C300 27.3 343 24.7 385.8 23.3C428.7 22 471.3 22 514.2 22C557 22 600 22 642.8 24C685.7 26 728.3 30 771.2 30.8C814 31.7 857 29.3 878.5 28.2L900 27L900 0L878.5 0C857 0 814 0 771.2 0C728.3 0 685.7 0 642.8 0C600 0 557 0 514.2 0C471.3 0 428.7 0 385.8 0C343 0 300 0 257.2 0C214.3 0 171.7 0 128.8 0C86 0 43 0 21.5 0L0 0Z" fill="#cee8e8"></path><path d="M0 23L21.5 20.7C43 18.3 86 13.7 128.8 12C171.7 10.3 214.3 11.7 257.2 14C300 16.3 343 19.7 385.8 20.8C428.7 22 471.3 21 514.2 20C557 19 600 18 642.8 17.3C685.7 16.7 728.3 16.3 771.2 16.8C814 17.3 857 18.7 878.5 19.3L900 20L900 0L878.5 0C857 0 814 0 771.2 0C728.3 0 685.7 0 642.8 0C600 0 557 0 514.2 0C471.3 0 428.7 0 385.8 0C343 0 300 0 257.2 0C214.3 0 171.7 0 128.8 0C86 0 43 0 21.5 0L0 0Z" fill="#ffffff"></path></svg>