<svg id="visual" viewBox="0 0 900 100" width="900" height="100" xmlns="http://www.w3.org/2000/svg" xmlns:xlink="http://www.w3.org/1999/xlink" version="1.1"><rect x="0" y="0" width="900" height="100" fill="#001220"></rect><path d="M0 52L21.5 56.5C43 61 86 70 128.8 69.8C171.7 69.7 214.3 60.3 257.2 56.7C300 53 343 55 385.8 58.8C428.7 62.7 471.3 68.3 514.2 69.7C557 71 600 68 642.8 67.8C685.7 67.7 728.3 70.3 771.2 71.5C814 72.7 857 72.3 878.5 72.2L900 72L900 0L878.5 0C857 0 814 0 771.2 0C728.3 0 685.7 0 642.8 0C600 0 557 0 514.2 0C471.3 0 428.7 0 385.8 0C343 0 300 0 257.2 0C214.3 0 171.7 0 128.8 0C86 0 43 0 21.5 0L0 0Z" fill="#01a3a4"></path><path d="M0 61L21.5 59.7C43 58.3 86 55.7 128.8 53.7C171.7 51.7 214.3 50.3 257.2 48.2C300 46 343 43 385.8 42C428.7 41 471.3 42 514.2 44.7C557 47.3 600 51.7 642.8 52.5C685.7 53.3 728.3 50.7 771.2 49C814 47.3 857 46.7 878.5 46.3L900 46L900 0L878.5 0C857 0 814 0 771.2 0C728.3 0 685.7 0 642.8 0C600 0 557 0 514.2 0C471.3 0 428.7 0 385.8 0C343 0 300 0 257.2 0C214.3 0 171.7 0 128.8 0C86 0 43 0 21.5 0L0 0Z" fill="#65baba"></path><path d="M0 32L21.5 34C43 36 86 40 128.8 42.8C171.7 45.7 214.3 47.3 257.2 48.3C300 49.3 343 49.7 385.8 47C428.7 44.3 471.3 38.7 514.2 37.2C557 35.7 600 38.3 642.8 39.2C685.7 40 728.3 39 771.2 40.8C814 42.7 857 47.3 878.5 49.7L900 52L900 0L878.5 0C857 0 814 0 771.2 0C728.3 0 685.7 0 642.8 0C600 0 557 0 514.2 0C471.3 0 428.7 0 385.8 0C343 0 300 0 257.2 0C214.3 0 171.7 0 128.8 0C86 0 43 0 21.5 0L0 0Z" fill="#9cd1d1"></path><path d="M0 28L21.5 27.7C43 27.3 86 26.7 128.8 25.5C171.7 24.3 214.3 22.7 257.2 23.3C300 24 343 27 385.8 27C428.7 27 471.3 24 514.2 24.3C557 24.7 600 28.3 642.8 30.3C685.7 32.3 728.3 32.7 771.2 32.2C814 31.7 857 30.3 878.5 29.7L900 29L900 0L878.5 0C857 0 814 0 771.2 0C728.3 0 685.7 0 642.8 0C600 0 557 0 514.2 0C471.3 0 428.7 0 385.8 0C343 0 300 0 257.2 0C214.3 0 171.7 0 128.8 0C86 0 43 0 21.5 0L0 0Z" fill="#cee8e8"></path><path d="M0 16L21.5 15.5C43 15 86 14 128.8 15C171.7 16 214.3 19 257.2 19.5C300 20 343 18 385.8 17.3C428.7 16.7 471.3 17.3 514.2 18.5C557 19.7 600 21.3 642.8 21.8C685.7 22.3 728.3 21.7 771.2 19.3C814 17 857 13 878.5 11L900 9L900 0L878.5 0C857 0 814 0 771.2 0C728.3 0 685.7 0 642.8 0C600 0 557 0 514.2 0C471.3 0 428.7 0 385.8 0C343 0 300 0 257.2 0C214.3 0 171.7 0 128.8 0C86 0 43 0 21.5 0L0 0Z" fill="#ffffff"></path></svg>